<?xml version="1.0" encoding="UTF-8"?>
<svg xmlns="http://www.w3.org/2000/svg" xmlns:xlink="http://www.w3.org/1999/xlink" width="14px" height="20px" viewBox="0 0 14 20" version="1.1">
<g id="surface1">
<path style=" stroke:none;fill-rule:nonzero;fill:rgb(0.392157%,0.784314%,0.784314%);fill-opacity:1;" d="M 9.320312 1.890625 L 12.699219 1.890625 L 13.996094 0 L 1.300781 0 L 0.00390625 1.890625 L 2.207031 1.890625 C 4.4375 1.890625 6.496094 2.058594 7.320312 3.871094 L 1.308594 3.871094 L 0.015625 5.761719 L 7.5625 5.761719 C 7.5625 7.121094 6.40625 9.203125 2.570312 9.203125 L 0.714844 9.203125 L 0.714844 10.96875 L 8.152344 20 L 11.464844 20 L 3.769531 10.667969 C 6.933594 10.5 9.910156 8.777344 10.335938 5.761719 L 12.699219 5.761719 L 13.996094 3.875 L 10.304688 3.875 C 10.164062 3.140625 9.824219 2.453125 9.320312 1.890625 Z M 9.320312 1.890625 "/>
</g>
</svg>
